/**
 * Tunes from:
 * https://github.com/robsoncouto/arduino-songs
 */

#include "buzzer.hpp"
#define LEN(x) sizeof(x) / sizeof(x[0])

#define ALERT_BLOCK(p, a) p.play(Tune(LEN(a), a))
#define ALERT(p, a) p.set_alert(Tune(LEN(a), a))
#define TUNE_BLOCK(p, t) p.play(Tune(LEN(t), t))
#define TUNE(p, t) p.set_tune(Tune(LEN(t), t));


const uint16_t starwars_melody[] PROGMEM = {
  
  // Dart Vader theme (Imperial March) - Star wars 
  // Score available at https://musescore.com/user/202909/scores/1141521
  // The tenor saxophone part was used
  108, // TEMPO
  NOTE_AS4,8, NOTE_AS4,8, NOTE_AS4,8,//1
  NOTE_F5,2, NOTE_C6,2,
  NOTE_AS5,8, NOTE_A5,8, NOTE_G5,8, NOTE_F6,2, NOTE_C6,4,  
  NOTE_AS5,8, NOTE_A5,8, NOTE_G5,8, NOTE_F6,2, NOTE_C6,4,  
  NOTE_AS5,8, NOTE_A5,8, NOTE_AS5,8, NOTE_G5,2, NOTE_C5,8, NOTE_C5,8, NOTE_C5,8,
  NOTE_F5,2, NOTE_C6,2,
  NOTE_AS5,8, NOTE_A5,8, NOTE_G5,8, NOTE_F6,2, NOTE_C6,4,  
  
  NOTE_AS5,8, NOTE_A5,8, NOTE_G5,8, NOTE_F6,2, NOTE_C6,4, //8  
  NOTE_AS5,8, NOTE_A5,8, NOTE_AS5,8, NOTE_G5,2, NOTE_C5,-8, NOTE_C5,16, 
  NOTE_D5,-4, NOTE_D5,8, NOTE_AS5,8, NOTE_A5,8, NOTE_G5,8, NOTE_F5,8,
  NOTE_F5,8, NOTE_G5,8, NOTE_A5,8, NOTE_G5,4, NOTE_D5,8, NOTE_E5,4,NOTE_C5,-8, NOTE_C5,16,
  NOTE_D5,-4, NOTE_D5,8, NOTE_AS5,8, NOTE_A5,8, NOTE_G5,8, NOTE_F5,8,
  
  NOTE_C6,-8, NOTE_G5,16, NOTE_G5,2, REST,8, NOTE_C5,8,//13
  NOTE_D5,-4, NOTE_D5,8, NOTE_AS5,8, NOTE_A5,8, NOTE_G5,8, NOTE_F5,8,
  NOTE_F5,8, NOTE_G5,8, NOTE_A5,8, NOTE_G5,4, NOTE_D5,8, NOTE_E5,4,NOTE_C6,-8, NOTE_C6,16,
  NOTE_F6,4, NOTE_DS6,8, NOTE_CS6,4, NOTE_C6,8, NOTE_AS5,4, NOTE_GS5,8, NOTE_G5,4, NOTE_F5,8,
  NOTE_C6,1
  
};

const uint16_t immarch_melody[] PROGMEM = {
  
  // Dart Vader theme (Imperial March) - Star wars 
  // Score available at https://musescore.com/user/202909/scores/1141521
  // The tenor saxophone part was used
  120, // TEMPO  
  NOTE_A4,-4, NOTE_A4,-4, NOTE_A4,16, NOTE_A4,16, NOTE_A4,16, NOTE_A4,16, NOTE_F4,8, REST,8,
  NOTE_A4,-4, NOTE_A4,-4, NOTE_A4,16, NOTE_A4,16, NOTE_A4,16, NOTE_A4,16, NOTE_F4,8, REST,8,
  NOTE_A4,4, NOTE_A4,4, NOTE_A4,4, NOTE_F4,-8, NOTE_C5,16,

  NOTE_A4,4, NOTE_F4,-8, NOTE_C5,16, NOTE_A4,2,//4
  NOTE_E5,4, NOTE_E5,4, NOTE_E5,4, NOTE_F5,-8, NOTE_C5,16,
  NOTE_A4,4, NOTE_F4,-8, NOTE_C5,16, NOTE_A4,2,
  
  NOTE_A5,4, NOTE_A4,-8, NOTE_A4,16, NOTE_A5,4, NOTE_GS5,-8, NOTE_G5,16, //7 
  NOTE_DS5,16, NOTE_D5,16, NOTE_DS5,8, REST,8, NOTE_A4,8, NOTE_DS5,4, NOTE_D5,-8, NOTE_CS5,16,

  NOTE_C5,16, NOTE_B4,16, NOTE_C5,16, REST,8, NOTE_F4,8, NOTE_GS4,4, NOTE_F4,-8, NOTE_A4,-16,//9
  NOTE_C5,4, NOTE_A4,-8, NOTE_C5,16, NOTE_E5,2,

  NOTE_A5,4, NOTE_A4,-8, NOTE_A4,16, NOTE_A5,4, NOTE_GS5,-8, NOTE_G5,16, //7 
  NOTE_DS5,16, NOTE_D5,16, NOTE_DS5,8, REST,8, NOTE_A4,8, NOTE_DS5,4, NOTE_D5,-8, NOTE_CS5,16,

  NOTE_C5,16, NOTE_B4,16, NOTE_C5,16, REST,8, NOTE_F4,8, NOTE_GS4,4, NOTE_F4,-8, NOTE_A4,-16,//9
  NOTE_A4,4, NOTE_F4,-8, NOTE_C5,16, NOTE_A4,2,
  
};

const uint16_t mario_melody[] PROGMEM = {

  // Super Mario Bros theme
  // Score available at https://musescore.com/user/2123/scores/2145
  // Theme by Koji Kondo
  
  200, //TEMPO  
  NOTE_E5,8, NOTE_E5,8, REST,8, NOTE_E5,8, REST,8, NOTE_C5,8, NOTE_E5,8, //1
  NOTE_G5,4, REST,4, NOTE_G4,8, REST,4, 
  NOTE_C5,-4, NOTE_G4,8, REST,4, NOTE_E4,-4, // 3
  NOTE_A4,4, NOTE_B4,4, NOTE_AS4,8, NOTE_A4,4,
  NOTE_G4,-8, NOTE_E5,-8, NOTE_G5,-8, NOTE_A5,4, NOTE_F5,8, NOTE_G5,8,
  REST,8, NOTE_E5,4,NOTE_C5,8, NOTE_D5,8, NOTE_B4,-4,
  NOTE_C5,-4, NOTE_G4,8, REST,4, NOTE_E4,-4, // repeats from 3
  NOTE_A4,4, NOTE_B4,4, NOTE_AS4,8, NOTE_A4,4,
  NOTE_G4,-8, NOTE_E5,-8, NOTE_G5,-8, NOTE_A5,4, NOTE_F5,8, NOTE_G5,8,
  REST,8, NOTE_E5,4,NOTE_C5,8, NOTE_D5,8, NOTE_B4,-4,

  
  REST,4, NOTE_G5,8, NOTE_FS5,8, NOTE_F5,8, NOTE_DS5,4, NOTE_E5,8,//7
  REST,8, NOTE_GS4,8, NOTE_A4,8, NOTE_C4,8, REST,8, NOTE_A4,8, NOTE_C5,8, NOTE_D5,8,
  REST,4, NOTE_DS5,4, REST,8, NOTE_D5,-4,
  NOTE_C5,2, REST,2,

  REST,4, NOTE_G5,8, NOTE_FS5,8, NOTE_F5,8, NOTE_DS5,4, NOTE_E5,8,//repeats from 7
  REST,8, NOTE_GS4,8, NOTE_A4,8, NOTE_C4,8, REST,8, NOTE_A4,8, NOTE_C5,8, NOTE_D5,8,
  REST,4, NOTE_DS5,4, REST,8, NOTE_D5,-4,
  NOTE_C5,2, REST,2,

  NOTE_C5,8, NOTE_C5,4, NOTE_C5,8, REST,8, NOTE_C5,8, NOTE_D5,4,//11
  NOTE_E5,8, NOTE_C5,4, NOTE_A4,8, NOTE_G4,2,

  NOTE_C5,8, NOTE_C5,4, NOTE_C5,8, REST,8, NOTE_C5,8, NOTE_D5,8, NOTE_E5,8,//13
  REST,1, 
  NOTE_C5,8, NOTE_C5,4, NOTE_C5,8, REST,8, NOTE_C5,8, NOTE_D5,4,
  NOTE_E5,8, NOTE_C5,4, NOTE_A4,8, NOTE_G4,2,
  NOTE_E5,8, NOTE_E5,8, REST,8, NOTE_E5,8, REST,8, NOTE_C5,8, NOTE_E5,4,
  NOTE_G5,4, REST,4, NOTE_G4,4, REST,4, 
  NOTE_C5,-4, NOTE_G4,8, REST,4, NOTE_E4,-4, // 19
  
  NOTE_A4,4, NOTE_B4,4, NOTE_AS4,8, NOTE_A4,4,
  NOTE_G4,-8, NOTE_E5,-8, NOTE_G5,-8, NOTE_A5,4, NOTE_F5,8, NOTE_G5,8,
  REST,8, NOTE_E5,4, NOTE_C5,8, NOTE_D5,8, NOTE_B4,-4,

  NOTE_C5,-4, NOTE_G4,8, REST,4, NOTE_E4,-4, // repeats from 19
  NOTE_A4,4, NOTE_B4,4, NOTE_AS4,8, NOTE_A4,4,
  NOTE_G4,-8, NOTE_E5,-8, NOTE_G5,-8, NOTE_A5,4, NOTE_F5,8, NOTE_G5,8,
  REST,8, NOTE_E5,4, NOTE_C5,8, NOTE_D5,8, NOTE_B4,-4,

  NOTE_E5,8, NOTE_C5,4, NOTE_G4,8, REST,4, NOTE_GS4,4,//23
  NOTE_A4,8, NOTE_F5,4, NOTE_F5,8, NOTE_A4,2,
  NOTE_D5,-8, NOTE_A5,-8, NOTE_A5,-8, NOTE_A5,-8, NOTE_G5,-8, NOTE_F5,-8,
  
  NOTE_E5,8, NOTE_C5,4, NOTE_A4,8, NOTE_G4,2, //26
  NOTE_E5,8, NOTE_C5,4, NOTE_G4,8, REST,4, NOTE_GS4,4,
  NOTE_A4,8, NOTE_F5,4, NOTE_F5,8, NOTE_A4,2,
  NOTE_B4,8, NOTE_F5,4, NOTE_F5,8, NOTE_F5,-8, NOTE_E5,-8, NOTE_D5,-8,
  NOTE_C5,8, NOTE_E4,4, NOTE_E4,8, NOTE_C4,2,

  NOTE_E5,8, NOTE_C5,4, NOTE_G4,8, REST,4, NOTE_GS4,4,//repeats from 23
  NOTE_A4,8, NOTE_F5,4, NOTE_F5,8, NOTE_A4,2,
  NOTE_D5,-8, NOTE_A5,-8, NOTE_A5,-8, NOTE_A5,-8, NOTE_G5,-8, NOTE_F5,-8,
  
  NOTE_E5,8, NOTE_C5,4, NOTE_A4,8, NOTE_G4,2, //26
  NOTE_E5,8, NOTE_C5,4, NOTE_G4,8, REST,4, NOTE_GS4,4,
  NOTE_A4,8, NOTE_F5,4, NOTE_F5,8, NOTE_A4,2,
  NOTE_B4,8, NOTE_F5,4, NOTE_F5,8, NOTE_F5,-8, NOTE_E5,-8, NOTE_D5,-8,
  NOTE_C5,8, NOTE_E4,4, NOTE_E4,8, NOTE_C4,2,
  NOTE_C5,8, NOTE_C5,4, NOTE_C5,8, REST,8, NOTE_C5,8, NOTE_D5,8, NOTE_E5,8,
  REST,1,

  NOTE_C5,8, NOTE_C5,4, NOTE_C5,8, REST,8, NOTE_C5,8, NOTE_D5,4, //33
  NOTE_E5,8, NOTE_C5,4, NOTE_A4,8, NOTE_G4,2,
  NOTE_E5,8, NOTE_E5,8, REST,8, NOTE_E5,8, REST,8, NOTE_C5,8, NOTE_E5,4,
  NOTE_G5,4, REST,4, NOTE_G4,4, REST,4, 
  NOTE_E5,8, NOTE_C5,4, NOTE_G4,8, REST,4, NOTE_GS4,4,
  NOTE_A4,8, NOTE_F5,4, NOTE_F5,8, NOTE_A4,2,
  NOTE_D5,-8, NOTE_A5,-8, NOTE_A5,-8, NOTE_A5,-8, NOTE_G5,-8, NOTE_F5,-8,
  
  NOTE_E5,8, NOTE_C5,4, NOTE_A4,8, NOTE_G4,2, //40
  NOTE_E5,8, NOTE_C5,4, NOTE_G4,8, REST,4, NOTE_GS4,4,
  NOTE_A4,8, NOTE_F5,4, NOTE_F5,8, NOTE_A4,2,
  NOTE_B4,8, NOTE_F5,4, NOTE_F5,8, NOTE_F5,-8, NOTE_E5,-8, NOTE_D5,-8,
  NOTE_C5,8, NOTE_E4,4, NOTE_E4,8, NOTE_C4,2,
  
  //game over sound
  NOTE_C5,-4, NOTE_G4,-4, NOTE_E4,4, //45
  NOTE_A4,-8, NOTE_B4,-8, NOTE_A4,-8, NOTE_GS4,-8, NOTE_AS4,-8, NOTE_GS4,-8,
  NOTE_G4,8, NOTE_D4,8, NOTE_E4,-2,  
};


const uint16_t pacman_melody[] PROGMEM = {
  // Pacman
  // Score available at https://musescore.com/user/85429/scores/107109
  105, // TEMPO
  NOTE_B4, 16, NOTE_B5, 16, NOTE_FS5, 16, NOTE_DS5, 16, //1
  NOTE_B5, 32, NOTE_FS5, -16, NOTE_DS5, 8, NOTE_C5, 16,
  NOTE_C6, 16, NOTE_G6, 16, NOTE_E6, 16, NOTE_C6, 32, NOTE_G6, -16, NOTE_E6, 8,

  NOTE_B4, 16,  NOTE_B5, 16,  NOTE_FS5, 16,   NOTE_DS5, 16,  NOTE_B5, 32,  //2
  NOTE_FS5, -16, NOTE_DS5, 8,  NOTE_DS5, 32, NOTE_E5, 32,  NOTE_F5, 32,
  NOTE_F5, 32,  NOTE_FS5, 32,  NOTE_G5, 32,  NOTE_G5, 32, NOTE_GS5, 32,  NOTE_A5, 16, NOTE_B5, 8
};


const uint16_t doom_melody[] PROGMEM = {

  // At Doom's Gate (E1M1)
  // Score available at https://musescore.com/pieridot/doom
  225, // TEMPO
  NOTE_E2, 8, NOTE_E2, 8, NOTE_E3, 8, NOTE_E2, 8, NOTE_E2, 8, NOTE_D3, 8, NOTE_E2, 8, NOTE_E2, 8, //1
  NOTE_C3, 8, NOTE_E2, 8, NOTE_E2, 8, NOTE_AS2, 8, NOTE_E2, 8, NOTE_E2, 8, NOTE_B2, 8, NOTE_C3, 8,
  NOTE_E2, 8, NOTE_E2, 8, NOTE_E3, 8, NOTE_E2, 8, NOTE_E2, 8, NOTE_D3, 8, NOTE_E2, 8, NOTE_E2, 8,
  NOTE_C3, 8, NOTE_E2, 8, NOTE_E2, 8, NOTE_AS2, -2,

  NOTE_E2, 8, NOTE_E2, 8, NOTE_E3, 8, NOTE_E2, 8, NOTE_E2, 8, NOTE_D3, 8, NOTE_E2, 8, NOTE_E2, 8, //5
  NOTE_C3, 8, NOTE_E2, 8, NOTE_E2, 8, NOTE_AS2, 8, NOTE_E2, 8, NOTE_E2, 8, NOTE_B2, 8, NOTE_C3, 8,
  NOTE_E2, 8, NOTE_E2, 8, NOTE_E3, 8, NOTE_E2, 8, NOTE_E2, 8, NOTE_D3, 8, NOTE_E2, 8, NOTE_E2, 8,
  NOTE_C3, 8, NOTE_E2, 8, NOTE_E2, 8, NOTE_AS2, -2,

  NOTE_E2, 8, NOTE_E2, 8, NOTE_E3, 8, NOTE_E2, 8, NOTE_E2, 8, NOTE_D3, 8, NOTE_E2, 8, NOTE_E2, 8, //9
  NOTE_C3, 8, NOTE_E2, 8, NOTE_E2, 8, NOTE_AS2, 8, NOTE_E2, 8, NOTE_E2, 8, NOTE_B2, 8, NOTE_C3, 8,
  NOTE_E2, 8, NOTE_E2, 8, NOTE_E3, 8, NOTE_E2, 8, NOTE_E2, 8, NOTE_D3, 8, NOTE_E2, 8, NOTE_E2, 8,
  NOTE_C3, 8, NOTE_E2, 8, NOTE_E2, 8, NOTE_AS2, -2,

  NOTE_E2, 8, NOTE_E2, 8, NOTE_E3, 8, NOTE_E2, 8, NOTE_E2, 8, NOTE_D3, 8, NOTE_E2, 8, NOTE_E2, 8, //13
  NOTE_C3, 8, NOTE_E2, 8, NOTE_E2, 8, NOTE_AS2, 8, NOTE_E2, 8, NOTE_E2, 8, NOTE_B2, 8, NOTE_C3, 8,
  NOTE_E2, 8, NOTE_E2, 8, NOTE_E3, 8, NOTE_E2, 8, NOTE_E2, 8, NOTE_D3, 8, NOTE_E2, 8, NOTE_E2, 8,
  NOTE_FS3, -16, NOTE_D3, -16, NOTE_B2, -16, NOTE_A3, -16, NOTE_FS3, -16, NOTE_B2, -16, NOTE_D3, -16, NOTE_FS3, -16, NOTE_A3, -16, NOTE_FS3, -16, NOTE_D3, -16, NOTE_B2, -16,

  NOTE_E2, 8, NOTE_E2, 8, NOTE_E3, 8, NOTE_E2, 8, NOTE_E2, 8, NOTE_D3, 8, NOTE_E2, 8, NOTE_E2, 8, //17
  NOTE_C3, 8, NOTE_E2, 8, NOTE_E2, 8, NOTE_AS2, 8, NOTE_E2, 8, NOTE_E2, 8, NOTE_B2, 8, NOTE_C3, 8,
  NOTE_E2, 8, NOTE_E2, 8, NOTE_E3, 8, NOTE_E2, 8, NOTE_E2, 8, NOTE_D3, 8, NOTE_E2, 8, NOTE_E2, 8,
  NOTE_C3, 8, NOTE_E2, 8, NOTE_E2, 8, NOTE_AS2, -2,

  NOTE_E2, 8, NOTE_E2, 8, NOTE_E3, 8, NOTE_E2, 8, NOTE_E2, 8, NOTE_D3, 8, NOTE_E2, 8, NOTE_E2, 8, //21
  NOTE_C3, 8, NOTE_E2, 8, NOTE_E2, 8, NOTE_AS2, 8, NOTE_E2, 8, NOTE_E2, 8, NOTE_B2, 8, NOTE_C3, 8,
  NOTE_E2, 8, NOTE_E2, 8, NOTE_E3, 8, NOTE_E2, 8, NOTE_E2, 8, NOTE_D3, 8, NOTE_E2, 8, NOTE_E2, 8,
  NOTE_B3, -16, NOTE_G3, -16, NOTE_E3, -16, NOTE_G3, -16, NOTE_B3, -16, NOTE_E4, -16, NOTE_G3, -16, NOTE_B3, -16, NOTE_E4, -16, NOTE_B3, -16, NOTE_G4, -16, NOTE_B4, -16,

  NOTE_A2, 8, NOTE_A2, 8, NOTE_A3, 8, NOTE_A2, 8, NOTE_A2, 8, NOTE_G3, 8, NOTE_A2, 8, NOTE_A2, 8, //25
  NOTE_F3, 8, NOTE_A2, 8, NOTE_A2, 8, NOTE_DS3, 8, NOTE_A2, 8, NOTE_A2, 8, NOTE_E3, 8, NOTE_F3, 8,
  NOTE_A2, 8, NOTE_A2, 8, NOTE_A3, 8, NOTE_A2, 8, NOTE_A2, 8, NOTE_G3, 8, NOTE_A2, 8, NOTE_A2, 8,
  NOTE_F3, 8, NOTE_A2, 8, NOTE_A2, 8, NOTE_DS3, -2,

  NOTE_A2, 8, NOTE_A2, 8, NOTE_A3, 8, NOTE_A2, 8, NOTE_A2, 8, NOTE_G3, 8, NOTE_A2, 8, NOTE_A2, 8, //29
  NOTE_F3, 8, NOTE_A2, 8, NOTE_A2, 8, NOTE_DS3, 8, NOTE_A2, 8, NOTE_A2, 8, NOTE_E3, 8, NOTE_F3, 8,
  NOTE_A2, 8, NOTE_A2, 8, NOTE_A3, 8, NOTE_A2, 8, NOTE_A2, 8, NOTE_G3, 8, NOTE_A2, 8, NOTE_A2, 8,
  NOTE_A3, -16, NOTE_F3, -16, NOTE_D3, -16, NOTE_A3, -16, NOTE_F3, -16, NOTE_D3, -16, NOTE_C4, -16, NOTE_A3, -16, NOTE_F3, -16, NOTE_A3, -16, NOTE_F3, -16, NOTE_D3, -16,

  NOTE_E2, 8, NOTE_E2, 8, NOTE_E3, 8, NOTE_E2, 8, NOTE_E2, 8, NOTE_D3, 8, NOTE_E2, 8, NOTE_E2, 8, //33
  NOTE_C3, 8, NOTE_E2, 8, NOTE_E2, 8, NOTE_AS2, 8, NOTE_E2, 8, NOTE_E2, 8, NOTE_B2, 8, NOTE_C3, 8,
  NOTE_E2, 8, NOTE_E2, 8, NOTE_E3, 8, NOTE_E2, 8, NOTE_E2, 8, NOTE_D3, 8, NOTE_E2, 8, NOTE_E2, 8,
  NOTE_C3, 8, NOTE_E2, 8, NOTE_E2, 8, NOTE_AS2, -2,

  NOTE_E2, 8, NOTE_E2, 8, NOTE_E3, 8, NOTE_E2, 8, NOTE_E2, 8, NOTE_D3, 8, NOTE_E2, 8, NOTE_E2, 8, //37
  NOTE_C3, 8, NOTE_E2, 8, NOTE_E2, 8, NOTE_AS2, 8, NOTE_E2, 8, NOTE_E2, 8, NOTE_B2, 8, NOTE_C3, 8,
  NOTE_E2, 8, NOTE_E2, 8, NOTE_E3, 8, NOTE_E2, 8, NOTE_E2, 8, NOTE_D3, 8, NOTE_E2, 8, NOTE_E2, 8,
  NOTE_C3, 8, NOTE_E2, 8, NOTE_E2, 8, NOTE_AS2, -2,

  NOTE_CS3, 8, NOTE_CS3, 8, NOTE_CS4, 8, NOTE_CS3, 8, NOTE_CS3, 8, NOTE_B3, 8, NOTE_CS3, 8, NOTE_CS3, 8, //41
  NOTE_A3, 8, NOTE_CS3, 8, NOTE_CS3, 8, NOTE_G3, 8, NOTE_CS3, 8, NOTE_CS3, 8, NOTE_GS3, 8, NOTE_A3, 8,
  NOTE_B2, 8, NOTE_B2, 8, NOTE_B3, 8, NOTE_B2, 8, NOTE_B2, 8, NOTE_A3, 8, NOTE_B2, 8, NOTE_B2, 8,
  NOTE_G3, 8, NOTE_B2, 8, NOTE_B2, 8, NOTE_F3, -2,

  NOTE_E2, 8, NOTE_E2, 8, NOTE_E3, 8, NOTE_E2, 8, NOTE_E2, 8, NOTE_D3, 8, NOTE_E2, 8, NOTE_E2, 8, //45
  NOTE_C3, 8, NOTE_E2, 8, NOTE_E2, 8, NOTE_AS2, 8, NOTE_E2, 8, NOTE_E2, 8, NOTE_B2, 8, NOTE_C3, 8,
  NOTE_E2, 8, NOTE_E2, 8, NOTE_E3, 8, NOTE_E2, 8, NOTE_E2, 8, NOTE_D3, 8, NOTE_E2, 8, NOTE_E2, 8,
  NOTE_B3, -16, NOTE_G3, -16, NOTE_E3, -16, NOTE_G3, -16, NOTE_B3, -16, NOTE_E4, -16, NOTE_G3, -16, NOTE_B3, -16, NOTE_E4, -16, NOTE_B3, -16, NOTE_G4, -16, NOTE_B4, -16,

  NOTE_E2, 8, NOTE_E2, 8, NOTE_E3, 8, NOTE_E2, 8, NOTE_E2, 8, NOTE_D3, 8, NOTE_E2, 8, NOTE_E2, 8, //49
  NOTE_C3, 8, NOTE_E2, 8, NOTE_E2, 8, NOTE_AS2, 8, NOTE_E2, 8, NOTE_E2, 8, NOTE_B2, 8, NOTE_C3, 8,
  NOTE_E2, 8, NOTE_E2, 8, NOTE_E3, 8, NOTE_E2, 8, NOTE_E2, 8, NOTE_D3, 8, NOTE_E2, 8, NOTE_E2, 8,
  NOTE_C3, 8, NOTE_E2, 8, NOTE_E2, 8, NOTE_AS2, -2,

  NOTE_E2, 8, NOTE_E2, 8, NOTE_E3, 8, NOTE_E2, 8, NOTE_E2, 8, NOTE_D3, 8, NOTE_E2, 8, NOTE_E2, 8, //53
  NOTE_C3, 8, NOTE_E2, 8, NOTE_E2, 8, NOTE_AS2, 8, NOTE_E2, 8, NOTE_E2, 8, NOTE_B2, 8, NOTE_C3, 8,
  NOTE_E2, 8, NOTE_E2, 8, NOTE_E3, 8, NOTE_E2, 8, NOTE_E2, 8, NOTE_D3, 8, NOTE_E2, 8, NOTE_E2, 8,
  NOTE_FS3, -16, NOTE_DS3, -16, NOTE_B2, -16, NOTE_FS3, -16, NOTE_DS3, -16, NOTE_B2, -16, NOTE_G3, -16, NOTE_D3, -16, NOTE_B2, -16, NOTE_DS4, -16, NOTE_DS3, -16, NOTE_B2, -16,

// -/-

  NOTE_E2, 8, NOTE_E2, 8, NOTE_E3, 8, NOTE_E2, 8, NOTE_E2, 8, NOTE_D3, 8, NOTE_E2, 8, NOTE_E2, 8, //57
  NOTE_C3, 8, NOTE_E2, 8, NOTE_E2, 8, NOTE_AS2, 8, NOTE_E2, 8, NOTE_E2, 8, NOTE_B2, 8, NOTE_C3, 8,
  NOTE_E2, 8, NOTE_E2, 8, NOTE_E3, 8, NOTE_E2, 8, NOTE_E2, 8, NOTE_D3, 8, NOTE_E2, 8, NOTE_E2, 8,
  NOTE_C3, 8, NOTE_E2, 8, NOTE_E2, 8, NOTE_AS2, -2,

  NOTE_E2, 8, NOTE_E2, 8, NOTE_E3, 8, NOTE_E2, 8, NOTE_E2, 8, NOTE_D3, 8, NOTE_E2, 8, NOTE_E2, 8, //61
  NOTE_C3, 8, NOTE_E2, 8, NOTE_E2, 8, NOTE_AS2, 8, NOTE_E2, 8, NOTE_E2, 8, NOTE_B2, 8, NOTE_C3, 8,
  NOTE_E2, 8, NOTE_E2, 8, NOTE_E3, 8, NOTE_E2, 8, NOTE_E2, 8, NOTE_D3, 8, NOTE_E2, 8, NOTE_E2, 8,
  NOTE_E4, -16, NOTE_B3, -16, NOTE_G3, -16, NOTE_G4, -16, NOTE_E4, -16, NOTE_G3, -16, NOTE_B3, -16, NOTE_D4, -16, NOTE_E4, -16, NOTE_G4, -16, NOTE_E4, -16, NOTE_G3, -16,  

  NOTE_E2, 8, NOTE_E2, 8, NOTE_E3, 8, NOTE_E2, 8, NOTE_E2, 8, NOTE_D3, 8, NOTE_E2, 8, NOTE_E2, 8, //65
  NOTE_C3, 8, NOTE_E2, 8, NOTE_E2, 8, NOTE_AS2, 8, NOTE_E2, 8, NOTE_E2, 8, NOTE_B2, 8, NOTE_C3, 8,
  NOTE_E2, 8, NOTE_E2, 8, NOTE_E3, 8, NOTE_E2, 8, NOTE_E2, 8, NOTE_D3, 8, NOTE_E2, 8, NOTE_E2, 8,
  NOTE_C3, 8, NOTE_E2, 8, NOTE_E2, 8, NOTE_AS2, -2,

  NOTE_A2, 8, NOTE_A2, 8, NOTE_A3, 8, NOTE_A2, 8, NOTE_A2, 8, NOTE_G3, 8, NOTE_A2, 8, NOTE_A2, 8, //69
  NOTE_F3, 8, NOTE_A2, 8, NOTE_A2, 8, NOTE_DS3, 8, NOTE_A2, 8, NOTE_A2, 8, NOTE_E3, 8, NOTE_F3, 8,
  NOTE_A2, 8, NOTE_A2, 8, NOTE_A3, 8, NOTE_A2, 8, NOTE_A2, 8, NOTE_G3, 8, NOTE_A2, 8, NOTE_A2, 8,
  NOTE_A3, -16, NOTE_F3, -16, NOTE_D3, -16, NOTE_A3, -16, NOTE_F3, -16, NOTE_D3, -16, NOTE_C4, -16, NOTE_A3, -16, NOTE_F3, -16, NOTE_A3, -16, NOTE_F3, -16, NOTE_D3, -16,

  NOTE_E2, 8, NOTE_E2, 8, NOTE_E3, 8, NOTE_E2, 8, NOTE_E2, 8, NOTE_D3, 8, NOTE_E2, 8, NOTE_E2, 8, //73
  NOTE_C3, 8, NOTE_E2, 8, NOTE_E2, 8, NOTE_AS2, 8, NOTE_E2, 8, NOTE_E2, 8, NOTE_B2, 8, NOTE_C3, 8,
  NOTE_E2, 8, NOTE_E2, 8, NOTE_E3, 8, NOTE_E2, 8, NOTE_E2, 8, NOTE_D3, 8, NOTE_E2, 8, NOTE_E2, 8,
  NOTE_C3, 8, NOTE_E2, 8, NOTE_E2, 8, NOTE_AS2, -2,

  NOTE_E2, 8, NOTE_E2, 8, NOTE_E3, 8, NOTE_E2, 8, NOTE_E2, 8, NOTE_D3, 8, NOTE_E2, 8, NOTE_E2, 8, //77
  NOTE_C3, 8, NOTE_E2, 8, NOTE_E2, 8, NOTE_AS2, 8, NOTE_E2, 8, NOTE_E2, 8, NOTE_B2, 8, NOTE_C3, 8,
  NOTE_E2, 8, NOTE_E2, 8, NOTE_E3, 8, NOTE_E2, 8, NOTE_E2, 8, NOTE_D3, 8, NOTE_E2, 8, NOTE_E2, 8,
  NOTE_C3, 8, NOTE_E2, 8, NOTE_E2, 8, NOTE_AS2, -2,

  NOTE_E2, 8, NOTE_E2, 8, NOTE_E3, 8, NOTE_E2, 8, NOTE_E2, 8, NOTE_D3, 8, NOTE_E2, 8, NOTE_E2, 8, //81
  NOTE_C3, 8, NOTE_E2, 8, NOTE_E2, 8, NOTE_AS2, 8, NOTE_E2, 8, NOTE_E2, 8, NOTE_B2, 8, NOTE_C3, 8,
  NOTE_E2, 8, NOTE_E2, 8, NOTE_E3, 8, NOTE_E2, 8, NOTE_E2, 8, NOTE_D3, 8, NOTE_E2, 8, NOTE_E2, 8,
  NOTE_C3, 8, NOTE_E2, 8, NOTE_E2, 8, NOTE_AS2, -2,

  NOTE_E2, 8, NOTE_E2, 8, NOTE_E3, 8, NOTE_E2, 8, NOTE_E2, 8, NOTE_D3, 8, NOTE_E2, 8, NOTE_E2, 8, //73
  NOTE_C3, 8, NOTE_E2, 8, NOTE_E2, 8, NOTE_AS2, 8, NOTE_E2, 8, NOTE_E2, 8, NOTE_B2, 8, NOTE_C3, 8,
  NOTE_E2, 8, NOTE_E2, 8, NOTE_E3, 8, NOTE_E2, 8, NOTE_E2, 8, NOTE_D3, 8, NOTE_E2, 8, NOTE_E2, 8,
  NOTE_B3, -16, NOTE_G3, -16, NOTE_E3, -16, NOTE_B2, -16, NOTE_E3, -16, NOTE_G3, -16, NOTE_C4, -16, NOTE_B3, -16, NOTE_G3, -16, NOTE_B3, -16, NOTE_G3, -16, NOTE_E3, -16,  
};


const uint16_t click[] PROGMEM = {500,  NOTE_E6, 8};
const uint16_t click2[] PROGMEM = {500,  NOTE_B5, 8};


const uint16_t fallen[] PROGMEM = { 500,
  NOTE_E5,8, REST,8, NOTE_E5,8, NOTE_E5,8,
};

const uint16_t ready[] PROGMEM = { 500,
    NOTE_E5,8, NOTE_E5,8, REST,8, NOTE_E5,8,
};

const uint16_t calibrating[] PROGMEM = { 500,
    NOTE_F5, 32,  NOTE_FS5, 32,  NOTE_G5, 32,  NOTE_G5, 32, NOTE_GS5, 32,  NOTE_A5, 16, NOTE_B5, 8
};

const uint16_t wait_link[] PROGMEM = { 500,
    NOTE_G5,4
};

const uint16_t link_up[] PROGMEM = { 500,
 NOTE_C5,-4, NOTE_G4,8, REST,4, NOTE_E4,-4,
};
